<svg width="200" height="30" viewBox="0 0 200 30" fill="none" xmlns="http://www.w3.org/2000/svg">
<path d="M50.84 8.64H41.81V27H37.28V5.235H50.84V8.64ZM73.8373 16.11C73.8373 17.7 73.5673 19.175 73.0273 20.535C72.4973 21.895 71.7423 23.07 70.7623 24.06C69.7923 25.05 68.6223 25.83 67.2523 26.4C65.8823 26.96 64.3623 27.24 62.6923 27.24C61.0223 27.24 59.5023 26.96 58.1323 26.4C56.7623 25.83 55.5873 25.05 54.6073 24.06C53.6273 23.07 52.8673 21.895 52.3273 20.535C51.7973 19.175 51.5323 17.7 51.5323 16.11C51.5323 14.52 51.7973 13.05 52.3273 11.7C52.8673 10.34 53.6273 9.165 54.6073 8.175C55.5873 7.185 56.7623 6.41 58.1323 5.85C59.5023 5.28 61.0223 4.995 62.6923 4.995C64.3623 4.995 65.8823 5.28 67.2523 5.85C68.6223 6.41 69.7923 7.19 70.7623 8.19C71.7423 9.18 72.4973 10.355 73.0273 11.715C73.5673 13.065 73.8373 14.53 73.8373 16.11ZM69.2323 16.11C69.2323 14.97 69.0823 13.95 68.7823 13.05C68.4823 12.14 68.0473 11.37 67.4773 10.74C66.9173 10.1 66.2323 9.615 65.4223 9.285C64.6223 8.945 63.7123 8.775 62.6923 8.775C61.6723 8.775 60.7573 8.945 59.9473 9.285C59.1373 9.615 58.4473 10.1 57.8773 10.74C57.3173 11.37 56.8873 12.14 56.5873 13.05C56.2873 13.95 56.1373 14.97 56.1373 16.11C56.1373 17.26 56.2873 18.29 56.5873 19.2C56.8873 20.1 57.3173 20.865 57.8773 21.495C58.4473 22.125 59.1373 22.61 59.9473 22.95C60.7573 23.28 61.6723 23.445 62.6923 23.445C63.7123 23.445 64.6223 23.28 65.4223 22.95C66.2323 22.61 66.9173 22.125 67.4773 21.495C68.0473 20.865 68.4823 20.1 68.7823 19.2C69.0823 18.29 69.2323 17.26 69.2323 16.11ZM84.4738 16.065C85.8838 16.065 86.9138 15.725 87.5638 15.045C88.2238 14.365 88.5538 13.435 88.5538 12.255C88.5538 11.715 88.4688 11.225 88.2988 10.785C88.1388 10.335 87.8888 9.955 87.5488 9.645C87.2188 9.325 86.7988 9.08 86.2888 8.91C85.7788 8.74 85.1738 8.655 84.4738 8.655H81.6238V16.065H84.4738ZM84.4738 5.235C85.9638 5.235 87.2488 5.41 88.3288 5.76C89.4188 6.11 90.3138 6.6 91.0138 7.23C91.7138 7.85 92.2288 8.59 92.5588 9.45C92.8988 10.31 93.0688 11.245 93.0688 12.255C93.0688 13.325 92.8938 14.305 92.5438 15.195C92.1938 16.085 91.6638 16.85 90.9538 17.49C90.2438 18.13 89.3488 18.63 88.2688 18.99C87.1888 19.34 85.9238 19.515 84.4738 19.515H81.6238V27H77.1238V5.235H84.4738ZM114.577 5.235V27H110.047V14.025C110.047 13.485 110.062 12.92 110.092 12.33C110.122 11.73 110.182 11.1 110.272 10.44C110.052 11.03 109.817 11.58 109.567 12.09C109.317 12.6 109.077 13.045 108.847 13.425L101.302 25.62C101.202 25.79 101.082 25.955 100.942 26.115C100.802 26.275 100.647 26.425 100.477 26.565C100.317 26.695 100.137 26.8 99.9373 26.88C99.7473 26.96 99.5423 27 99.3223 27H95.9323V5.235H100.462V18.21C100.462 18.75 100.447 19.32 100.417 19.92C100.387 20.51 100.327 21.135 100.237 21.795C100.457 21.205 100.692 20.655 100.942 20.145C101.192 19.635 101.432 19.19 101.662 18.81L109.207 6.6C109.307 6.44 109.427 6.28 109.567 6.12C109.707 5.95 109.857 5.8 110.017 5.67C110.187 5.54 110.367 5.435 110.557 5.355C110.757 5.275 110.967 5.235 111.187 5.235H114.577ZM117.89 7.305C118.74 6.585 119.76 6.02 120.95 5.61C122.14 5.2 123.45 4.995 124.88 4.995C126.08 4.995 127.16 5.135 128.12 5.415C129.09 5.695 129.915 6.09 130.595 6.6C131.275 7.1 131.795 7.705 132.155 8.415C132.525 9.115 132.71 9.89 132.71 10.74C132.71 11.74 132.485 12.655 132.035 13.485C131.595 14.315 130.91 14.995 129.98 15.525C130.46 15.765 130.9 16.045 131.3 16.365C131.71 16.685 132.055 17.04 132.335 17.43C132.625 17.82 132.85 18.24 133.01 18.69C133.17 19.14 133.25 19.615 133.25 20.115C133.25 21.105 133.065 22.035 132.695 22.905C132.325 23.765 131.785 24.515 131.075 25.155C130.375 25.785 129.51 26.285 128.48 26.655C127.45 27.025 126.275 27.21 124.955 27.21C124.205 27.21 123.455 27.14 122.705 27C121.965 26.86 121.255 26.665 120.575 26.415C119.895 26.165 119.255 25.865 118.655 25.515C118.065 25.165 117.54 24.775 117.08 24.345L118.415 22.215C118.525 22.055 118.665 21.925 118.835 21.825C119.015 21.715 119.21 21.66 119.42 21.66C119.7 21.66 120 21.76 120.32 21.96C120.64 22.16 121.015 22.38 121.445 22.62C121.875 22.86 122.385 23.08 122.975 23.28C123.565 23.48 124.27 23.58 125.09 23.58C126.33 23.58 127.295 23.32 127.985 22.8C128.675 22.28 129.02 21.445 129.02 20.295C129.02 19.835 128.92 19.425 128.72 19.065C128.53 18.695 128.26 18.385 127.91 18.135C127.56 17.885 127.135 17.695 126.635 17.565C126.135 17.435 125.585 17.375 124.985 17.385H121.865L121.85 13.815H124.64C125.89 13.815 126.845 13.585 127.505 13.125C128.165 12.665 128.495 11.995 128.495 11.115C128.495 10.345 128.185 9.735 127.565 9.285C126.955 8.835 126.05 8.61 124.85 8.61C124.16 8.61 123.56 8.685 123.05 8.835C122.54 8.985 122.095 9.155 121.715 9.345C121.345 9.525 121.02 9.69 120.74 9.84C120.47 9.99 120.225 10.065 120.005 10.065C119.775 10.065 119.585 10.015 119.435 9.915C119.285 9.805 119.14 9.64 119 9.42L117.89 7.305ZM157.685 16.11C157.685 17.7 157.415 19.175 156.875 20.535C156.345 21.895 155.59 23.07 154.61 24.06C153.64 25.05 152.47 25.83 151.1 26.4C149.73 26.96 148.21 27.24 146.54 27.24C144.87 27.24 143.35 26.96 141.98 26.4C140.61 25.83 139.435 25.05 138.455 24.06C137.475 23.07 136.715 21.895 136.175 20.535C135.645 19.175 135.38 17.7 135.38 16.11C135.38 14.52 135.645 13.05 136.175 11.7C136.715 10.34 137.475 9.165 138.455 8.175C139.435 7.185 140.61 6.41 141.98 5.85C143.35 5.28 144.87 4.995 146.54 4.995C148.21 4.995 149.73 5.28 151.1 5.85C152.47 6.41 153.64 7.19 154.61 8.19C155.59 9.18 156.345 10.355 156.875 11.715C157.415 13.065 157.685 14.53 157.685 16.11ZM153.08 16.11C153.08 14.97 152.93 13.95 152.63 13.05C152.33 12.14 151.895 11.37 151.325 10.74C150.765 10.1 150.08 9.615 149.27 9.285C148.47 8.945 147.56 8.775 146.54 8.775C145.52 8.775 144.605 8.945 143.795 9.285C142.985 9.615 142.295 10.1 141.725 10.74C141.165 11.37 140.735 12.14 140.435 13.05C140.135 13.95 139.985 14.97 139.985 16.11C139.985 17.26 140.135 18.29 140.435 19.2C140.735 20.1 141.165 20.865 141.725 21.495C142.295 22.125 142.985 22.61 143.795 22.95C144.605 23.28 145.52 23.445 146.54 23.445C147.56 23.445 148.47 23.28 149.27 22.95C150.08 22.61 150.765 22.125 151.325 21.495C151.895 20.865 152.33 20.1 152.63 19.2C152.93 18.29 153.08 17.26 153.08 16.11ZM179.616 5.235V27H175.086V17.625H165.501V27H160.971V5.235H165.501V14.475H175.086V5.235H179.616ZM199.58 8.865H193.22V27H188.705V8.865H182.345V5.235H199.58V8.865Z" fill="#373737"/>
<rect x="14.1953" y="14.4219" width="11.25" height="11.157" fill="#373737"/>
<rect x="1" y="1" width="28" height="28" stroke="#FF7A00" stroke-width="2"/>
<path d="M4.55469 4.48438H25.5547V12.1703H11.9297V25.5587H4.55469V4.48438Z" fill="#FF7A00"/>
</svg>
