<svg width="405" height="65" viewBox="0 0 405 65" fill="none" xmlns="http://www.w3.org/2000/svg">
<path d="M106.68 18.28H88.62V55H79.56V11.47H106.68V18.28ZM152.675 33.22C152.675 36.4 152.135 39.35 151.055 42.07C149.995 44.79 148.485 47.14 146.525 49.12C144.585 51.1 142.245 52.66 139.505 53.8C136.765 54.92 133.725 55.48 130.385 55.48C127.045 55.48 124.005 54.92 121.265 53.8C118.525 52.66 116.175 51.1 114.215 49.12C112.255 47.14 110.735 44.79 109.655 42.07C108.595 39.35 108.065 36.4 108.065 33.22C108.065 30.04 108.595 27.1 109.655 24.4C110.735 21.68 112.255 19.33 114.215 17.35C116.175 15.37 118.525 13.82 121.265 12.7C124.005 11.56 127.045 10.99 130.385 10.99C133.725 10.99 136.765 11.56 139.505 12.7C142.245 13.82 144.585 15.38 146.525 17.38C148.485 19.36 149.995 21.71 151.055 24.43C152.135 27.13 152.675 30.06 152.675 33.22ZM143.465 33.22C143.465 30.94 143.165 28.9 142.565 27.1C141.965 25.28 141.095 23.74 139.955 22.48C138.835 21.2 137.465 20.23 135.845 19.57C134.245 18.89 132.425 18.55 130.385 18.55C128.345 18.55 126.515 18.89 124.895 19.57C123.275 20.23 121.895 21.2 120.755 22.48C119.635 23.74 118.775 25.28 118.175 27.1C117.575 28.9 117.275 30.94 117.275 33.22C117.275 35.52 117.575 37.58 118.175 39.4C118.775 41.2 119.635 42.73 120.755 43.99C121.895 45.25 123.275 46.22 124.895 46.9C126.515 47.56 128.345 47.89 130.385 47.89C132.425 47.89 134.245 47.56 135.845 46.9C137.465 46.22 138.835 45.25 139.955 43.99C141.095 42.73 141.965 41.2 142.565 39.4C143.165 37.58 143.465 35.52 143.465 33.22ZM173.948 33.13C176.768 33.13 178.828 32.45 180.128 31.09C181.448 29.73 182.108 27.87 182.108 25.51C182.108 24.43 181.938 23.45 181.598 22.57C181.278 21.67 180.778 20.91 180.098 20.29C179.438 19.65 178.598 19.16 177.578 18.82C176.558 18.48 175.348 18.31 173.948 18.31H168.248V33.13H173.948ZM173.948 11.47C176.928 11.47 179.498 11.82 181.658 12.52C183.838 13.22 185.628 14.2 187.028 15.46C188.428 16.7 189.458 18.18 190.118 19.9C190.798 21.62 191.138 23.49 191.138 25.51C191.138 27.65 190.788 29.61 190.088 31.39C189.388 33.17 188.328 34.7 186.908 35.98C185.488 37.26 183.698 38.26 181.538 38.98C179.378 39.68 176.848 40.03 173.948 40.03H168.248V55H159.248V11.47H173.948ZM234.155 11.47V55H225.095V29.05C225.095 27.97 225.125 26.84 225.185 25.66C225.245 24.46 225.365 23.2 225.545 21.88C225.105 23.06 224.635 24.16 224.135 25.18C223.635 26.2 223.155 27.09 222.695 27.85L207.605 52.24C207.405 52.58 207.165 52.91 206.885 53.23C206.605 53.55 206.295 53.85 205.955 54.13C205.635 54.39 205.275 54.6 204.875 54.76C204.495 54.92 204.085 55 203.645 55H196.865V11.47H205.925V37.42C205.925 38.5 205.895 39.64 205.835 40.84C205.775 42.02 205.655 43.27 205.475 44.59C205.915 43.41 206.385 42.31 206.885 41.29C207.385 40.27 207.865 39.38 208.325 38.62L223.415 14.2C223.615 13.88 223.855 13.56 224.135 13.24C224.415 12.9 224.715 12.6 225.035 12.34C225.375 12.08 225.735 11.87 226.115 11.71C226.515 11.55 226.935 11.47 227.375 11.47H234.155ZM240.781 15.61C242.481 14.17 244.521 13.04 246.901 12.22C249.281 11.4 251.901 10.99 254.761 10.99C257.161 10.99 259.321 11.27 261.241 11.83C263.181 12.39 264.831 13.18 266.191 14.2C267.551 15.2 268.591 16.41 269.311 17.83C270.051 19.23 270.421 20.78 270.421 22.48C270.421 24.48 269.971 26.31 269.071 27.97C268.191 29.63 266.821 30.99 264.961 32.05C265.921 32.53 266.801 33.09 267.601 33.73C268.421 34.37 269.111 35.08 269.671 35.86C270.251 36.64 270.701 37.48 271.021 38.38C271.341 39.28 271.501 40.23 271.501 41.23C271.501 43.21 271.131 45.07 270.391 46.81C269.651 48.53 268.571 50.03 267.151 51.31C265.751 52.57 264.021 53.57 261.961 54.31C259.901 55.05 257.551 55.42 254.911 55.42C253.411 55.42 251.911 55.28 250.411 55C248.931 54.72 247.511 54.33 246.151 53.83C244.791 53.33 243.511 52.73 242.311 52.03C241.131 51.33 240.081 50.55 239.161 49.69L241.831 45.43C242.051 45.11 242.331 44.85 242.671 44.65C243.031 44.43 243.421 44.32 243.841 44.32C244.401 44.32 245.001 44.52 245.641 44.92C246.281 45.32 247.031 45.76 247.891 46.24C248.751 46.72 249.771 47.16 250.951 47.56C252.131 47.96 253.541 48.16 255.181 48.16C257.661 48.16 259.591 47.64 260.971 46.6C262.351 45.56 263.041 43.89 263.041 41.59C263.041 40.67 262.841 39.85 262.441 39.13C262.061 38.39 261.521 37.77 260.821 37.27C260.121 36.77 259.271 36.39 258.271 36.13C257.271 35.87 256.171 35.75 254.971 35.77H248.731L248.701 28.63H254.281C256.781 28.63 258.691 28.17 260.011 27.25C261.331 26.33 261.991 24.99 261.991 23.23C261.991 21.69 261.371 20.47 260.131 19.57C258.911 18.67 257.101 18.22 254.701 18.22C253.321 18.22 252.121 18.37 251.101 18.67C250.081 18.97 249.191 19.31 248.431 19.69C247.691 20.05 247.041 20.38 246.481 20.68C245.941 20.98 245.451 21.13 245.011 21.13C244.551 21.13 244.171 21.03 243.871 20.83C243.571 20.61 243.281 20.28 243.001 19.84L240.781 15.61ZM320.37 33.22C320.37 36.4 319.83 39.35 318.75 42.07C317.69 44.79 316.18 47.14 314.22 49.12C312.28 51.1 309.94 52.66 307.2 53.8C304.46 54.92 301.42 55.48 298.08 55.48C294.74 55.48 291.7 54.92 288.96 53.8C286.22 52.66 283.87 51.1 281.91 49.12C279.95 47.14 278.43 44.79 277.35 42.07C276.29 39.35 275.76 36.4 275.76 33.22C275.76 30.04 276.29 27.1 277.35 24.4C278.43 21.68 279.95 19.33 281.91 17.35C283.87 15.37 286.22 13.82 288.96 12.7C291.7 11.56 294.74 10.99 298.08 10.99C301.42 10.99 304.46 11.56 307.2 12.7C309.94 13.82 312.28 15.38 314.22 17.38C316.18 19.36 317.69 21.71 318.75 24.43C319.83 27.13 320.37 30.06 320.37 33.22ZM311.16 33.22C311.16 30.94 310.86 28.9 310.26 27.1C309.66 25.28 308.79 23.74 307.65 22.48C306.53 21.2 305.16 20.23 303.54 19.57C301.94 18.89 300.12 18.55 298.08 18.55C296.04 18.55 294.21 18.89 292.59 19.57C290.97 20.23 289.59 21.2 288.45 22.48C287.33 23.74 286.47 25.28 285.87 27.1C285.27 28.9 284.97 30.94 284.97 33.22C284.97 35.52 285.27 37.58 285.87 39.4C286.47 41.2 287.33 42.73 288.45 43.99C289.59 45.25 290.97 46.22 292.59 46.9C294.21 47.56 296.04 47.89 298.08 47.89C300.12 47.89 301.94 47.56 303.54 46.9C305.16 46.22 306.53 45.25 307.65 43.99C308.79 42.73 309.66 41.2 310.26 39.4C310.86 37.58 311.16 35.52 311.16 33.22ZM364.233 11.47V55H355.173V36.25H336.003V55H326.943V11.47H336.003V29.95H355.173V11.47H364.233ZM404.159 18.73H391.439V55H382.409V18.73H369.689V11.47H404.159V18.73Z" fill="white"/>
<rect x="30.8516" y="31.1797" width="24.375" height="24.1736" fill="white"/>
<rect x="2.5" y="2.5" width="60" height="60" stroke="#FF7A00" stroke-width="5"/>
<path d="M9.78125 9.6875H55.2812V26.3404H25.7604V55.3486H9.78125V9.6875Z" fill="#FF7A00"/>
</svg>
