<?xml version="1.0" encoding="utf-8"?><svg viewBox="0 0 502.66 502.66" xmlns="http://www.w3.org/2000/svg" xmlns:xlink="http://www.w3.org/1999/xlink"><style>:root>svg{display:none}:root>svg:target{display:block}</style><svg viewBox="0 0 28 30" id="arrow-left" xmlns="http://www.w3.org/2000/svg"><path d="M1.25 13.75a2 2 0 0 0 0 2.828l12.728 12.728a2 2 0 0 0 2.828-2.828L5.492 15.164 16.806 3.85a2 2 0 0 0-2.828-2.828L1.25 13.75Zm26.414-.586h-25v4h25v-4Z"/></svg><svg viewBox="0 0 502.664 502.664" xml:space="preserve" id="icon" xmlns="http://www.w3.org/2000/svg"><path d="M153.821 358.226 0 274.337v-46.463l153.821-83.414v54.574L46.636 250.523l107.185 53.431v54.272zm26.273 29.358L282.103 115.08h32.227L212.084 387.584h-31.99zm168.749-29.358v-54.272l107.164-52.999-107.164-52.59v-53.927l153.821 83.522v46.183l-153.821 84.083z"/></svg><svg viewBox="0 0 12 11" id="link-arr" xmlns="http://www.w3.org/2000/svg"><path d="M11.192 1.003a1 1 0 0 0-1-1h-9a1 1 0 1 0 0 2h8v8a1 1 0 1 0 2 0v-9Zm-9.485 9.9L10.9 1.71 9.486.296.293 9.488l1.414 1.414Z"/></svg></svg>